<svg width="39" height="33" viewBox="0 0 39 33" fill="none" xmlns="http://www.w3.org/2000/svg">
<path id="Vector" d="M5.11111 13.0556V30.2778C5.11111 30.7345 5.32768 31.1726 5.71317 31.4956C6.09866 31.8186 6.6215 32 7.16667 32H15.3889V23.3889C15.3889 22.9321 15.6055 22.4941 15.9909 22.1711C16.3764 21.8481 16.8993 21.6667 17.4444 21.6667H21.5556C22.1007 21.6667 22.6236 21.8481 23.0091 22.1711C23.3945 22.4941 23.6111 22.9321 23.6111 23.3889V32H31.8333C32.3785 32 32.9013 31.8186 33.2868 31.4956C33.6723 31.1726 33.8889 30.7345 33.8889 30.2778V13.0556M1 16.5L19.5 1L38 16.5" stroke="white" stroke-width="2" stroke-linecap="round" stroke-linejoin="round"/>
</svg>
